{"scene":0,"asset":{"generator":"ImageToStl.com","version":"2.0"},"scenes":[{"name":"Scene","nodes":[0]}],"nodes":[{"name":"Node0","children":[1]},{"name":"Node1","mesh":0}],"materials":[{"name":"x1","pbrMetallicRoughness":{"baseColorFactor":[0.85,0.85,0.85,1.0],"metallicFactor":0.05,"roughnessFactor":0.5},"doubleSided":true}],"meshes":[{"name":"Mesh0","primitives":[{"indices":2,"material":0,"attributes":{"POSITION":0,"NORMAL":1}}]}],"accessors":[{"bufferView":0,"componentType":5126,"count":1278,"type":"VEC3","min":[-88.94157,-99.49219,-60.149586],"max":[89.02566,103.26905,114.63583]},{"bufferView":1,"componentType":5126,"count":1278,"type":"VEC3"},{"bufferView":2,"componentType":5123,"count":1308,"type":"SCALAR"}],"bufferViews":[{"target":34962,"buffer":0,"byteLength":15336,"byteOffset":0},{"target":34962,"buffer":0,"byteLength":15336,"byteOffset":15336},{"target":34963,"buffer":0,"byteLength":2616,"byteOffset":30672}],"buffers":[{"byteLength":33288,"uri":"data:application/octet-stream;base64,"}]}