{"scene":0,"asset":{"generator":"ImageToStl.com","version":"2.0"},"scenes":[{"name":"Scene","nodes":[0]}],"nodes":[{"name":"Node0","children":[1]},{"name":"Node1","mesh":0}],"materials":[{"name":"x1","pbrMetallicRoughness":{"baseColorFactor":[0.85,0.85,0.85,1.0],"metallicFactor":0.05,"roughnessFactor":0.5},"doubleSided":true}],"meshes":[{"name":"Mesh0","primitives":[{"indices":2,"material":0,"attributes":{"POSITION":0,"NORMAL":1}}]}],"accessors":[{"bufferView":0,"componentType":5126,"count":38602,"type":"VEC3","min":[-17.22209,-24.700813,-2.1684043E-15],"max":[16.97791,24.859867,46.77844]},{"bufferView":1,"componentType":5126,"count":38602,"type":"VEC3"},{"bufferView":2,"componentType":5123,"count":42954,"type":"SCALAR"}],"bufferViews":[{"target":34962,"buffer":0,"byteLength":463224,"byteOffset":0},{"target":34962,"buffer":0,"byteLength":463224,"byteOffset":463224},{"target":34963,"buffer":0,"byteLength":85908,"byteOffset":926448}],"buffers":[{"byteLength":1012356,"uri":"data:application/octet-stream;base64,"}]}