{"scene":0,"asset":{"generator":"ImageToStl.com","version":"2.0"},"scenes":[{"name":"Scene","nodes":[0]}],"nodes":[{"name":"Node0","children":[1]},{"name":"Node1","mesh":0}],"materials":[{"name":"x1","pbrMetallicRoughness":{"baseColorFactor":[0.85,0.85,0.85,1.0],"metallicFactor":0.05,"roughnessFactor":0.5},"doubleSided":true}],"meshes":[{"name":"Mesh0","primitives":[{"indices":2,"material":0,"attributes":{"POSITION":0,"NORMAL":1}}]}],"accessors":[{"bufferView":0,"componentType":5126,"count":88946,"type":"VEC3","min":[2.5000005,0.0,4.8],"max":[22.800001,27.616241,25.952883]},{"bufferView":1,"componentType":5126,"count":88946,"type":"VEC3"},{"bufferView":2,"componentType":5125,"count":95442,"type":"SCALAR"}],"bufferViews":[{"target":34962,"buffer":0,"byteLength":1067352,"byteOffset":0},{"target":34962,"buffer":0,"byteLength":1067352,"byteOffset":1067352},{"target":34963,"buffer":0,"byteLength":381768,"byteOffset":2134704}],"buffers":[{"byteLength":2516472,"uri":"data:application/octet-stream;base64,"}]}